<svg width="1200" height="244" viewBox="0 0 1200 244" fill="none" xmlns="http://www.w3.org/2000/svg">
<path d="M952 230L831 230" stroke="#F5F5F5" stroke-width="2"/>
<path d="M1081 230L968 230" stroke="#F5F5F5" stroke-width="2"/>
<circle cx="1126" cy="229" r="4" stroke="#F5F5F5" stroke-width="2"/>
<circle cx="1099" cy="203" r="4" stroke="#F5F5F5" stroke-width="2"/>
<circle cx="828" cy="230" r="4" stroke="#F5F5F5" stroke-width="2"/>
<path d="M1123 227L1102 205" stroke="#F5F5F5" stroke-width="2"/>
<circle cx="1086" cy="230" r="4" stroke="#F5F5F5" stroke-width="2"/>
<path fill-rule="evenodd" clip-rule="evenodd" d="M852.9 91C852.437 88.7178 850.419 87 848 87C845.239 87 843 89.2386 843 92C843 94.7614 845.239 97 848 97C850.419 97 852.437 95.2822 852.9 93L968 93C971.866 93 975 96.134 975 100L975 143.5C975 147.366 971.866 150.5 968 150.5H873V152C873 149.239 870.761 147 868 147C865.239 147 863 149.239 863 152C863 154.761 865.239 157 868 157C870.761 157 873 154.761 873 152V152.5H968C972.971 152.5 977 148.471 977 143.5V123H1200V121H977V100C977 95.0294 972.971 91 968 91L852.9 91ZM851 92C851 93.6569 849.657 95 848 95C846.343 95 845 93.6569 845 92C845 90.3431 846.343 89 848 89C849.657 89 851 90.3431 851 92ZM868 155C869.657 155 871 153.657 871 152C871 150.343 869.657 149 868 149C866.343 149 865 150.343 865 152C865 153.657 866.343 155 868 155Z" fill="#F5F5F5"/>
<circle cx="33" cy="78" r="4" stroke="#F5F5F5" stroke-width="2"/>
<path d="M30 78L0 78" stroke="#F5F5F5" stroke-width="2"/>
<path d="M952 32L831 32" stroke="#F5F5F5" stroke-width="2"/>
<path d="M1200 32H999" stroke="#F5F5F5" stroke-width="2"/>
<circle cx="996" cy="31" r="4" stroke="#F5F5F5" stroke-width="2"/>
<circle cx="969" cy="5" r="4" stroke="#F5F5F5" stroke-width="2"/>
<circle cx="828" cy="32" r="4" stroke="#F5F5F5" stroke-width="2"/>
<path d="M993 29L972 7" stroke="#F5F5F5" stroke-width="2"/>
<circle cx="956" cy="32" r="4" stroke="#F5F5F5" stroke-width="2"/>
<circle cx="109" cy="32" r="4" stroke="#F5F5F5" stroke-width="2"/>
<path d="M106 32L0 32" stroke="#F5F5F5" stroke-width="2"/>
<circle cx="109" cy="182" r="4" stroke="#F5F5F5" stroke-width="2"/>
<path d="M106 182L0 182" stroke="#F5F5F5" stroke-width="2"/>
<path d="M951.5 216V243.5" stroke="#F5F5F5" stroke-width="2"/>
<path d="M968 216V243.5" stroke="#F5F5F5" stroke-width="2"/>
<path d="M1200 229L1130 229" stroke="#F5F5F5" stroke-width="2"/>
</svg>
